<svg width="60" height="39" viewBox="0 0 60 39" fill="none" xmlns="http://www.w3.org/2000/svg">
<rect x="0.5" y="29" width="59" height="2" rx="1" stroke="black"/>
<path fill-rule="evenodd" clip-rule="evenodd" d="M38.5042 4L30.0874 4.01543V24.9012V24.9384H30.0876C30.1076 27.2464 31.984 29.1112 34.2958 29.1112C36.6076 29.1112 38.484 27.2464 38.504 24.9384H38.5042V24.9012V4Z" fill="white"/>
<path fill-rule="evenodd" clip-rule="evenodd" d="M30.087 21.8684C34.7808 21.5983 38.5038 17.705 38.5038 12.9417C38.5038 8.00333 34.5021 4 29.5656 4C24.6292 4 20.6274 8.00333 20.6274 12.9417V29.1112V36.0783V36.1156H20.6277C20.6476 37.4358 21.7241 38.5 23.0491 38.5H26.4736C27.7986 38.5 28.8751 37.4358 28.895 36.1156H28.8953V36.0783V29.1112H30.087V21.8684Z" fill="black"/>
<path fill-rule="evenodd" clip-rule="evenodd" d="M30.0874 4.01543L38.5042 4V24.9012V24.9384H38.504C38.4841 27.234 36.6277 29.0912 34.333 29.1111V29.1112H34.2958H30.0874V24.9415H30.0876C30.0876 24.9405 30.0876 24.9395 30.0876 24.9384H30.0874V24.9012V4.01543Z" fill="black"/>
<path d="M29.5873 21.25C29.5873 24.3677 28.8423 26.7729 27.3942 28.3946C25.9549 30.0064 23.7519 30.9212 20.6649 30.9212C19.0251 30.9212 17.8345 31.1328 16.9717 31.3501C16.6119 31.4408 16.3089 31.5326 16.0659 31.6062C16.0201 31.62 15.9765 31.6333 15.935 31.6457C15.7456 31.7025 15.6211 31.7362 15.5362 31.7533C15.5251 31.6867 15.516 31.5972 15.5098 31.4772C15.4933 31.1599 15.5 30.7314 15.5093 30.136C15.5168 29.6532 15.526 29.0607 15.526 28.3288C15.526 25.2684 16.8478 21.7686 18.9599 19.0332C21.0759 16.2926 23.9103 14.4104 26.8844 14.4104C28.4946 14.4104 29.4115 14.4746 29.9239 14.6369C30.1658 14.7135 30.2582 14.7948 30.2988 14.8494C30.3378 14.9018 30.3762 14.9924 30.3769 15.19C30.3776 15.3947 30.3382 15.6609 30.2649 16.0261C30.2316 16.1917 30.1931 16.3699 30.1507 16.566L30.14 16.6156C30.0936 16.83 30.0435 17.0631 29.9932 17.3139C29.7913 18.321 29.5873 19.6118 29.5873 21.25Z" fill="white" stroke="black"/>
<mask id="path-6-inside-1_60_242" fill="white">
<path fill-rule="evenodd" clip-rule="evenodd" d="M38.5042 14.2084V4.00012C42.539 4.02803 45.8037 8.58774 45.8037 14.2084H38.5042Z"/>
</mask>
<path fill-rule="evenodd" clip-rule="evenodd" d="M38.5042 14.2084V4.00012C42.539 4.02803 45.8037 8.58774 45.8037 14.2084H38.5042Z" fill="white"/>
<path d="M38.5042 4.00012H37.5042V2.99318L38.5111 3.00015L38.5042 4.00012ZM38.5042 14.2084V15.2084H37.5042V14.2084H38.5042ZM45.8037 14.2084H46.8037V15.2084H45.8037V14.2084ZM39.5042 4.00012V14.2084H37.5042V4.00012H39.5042ZM38.5111 3.00015C40.9305 3.01688 43.0268 4.39318 44.4803 6.42517C45.9352 8.45898 46.8037 11.2128 46.8037 14.2084H44.8037C44.8037 11.5833 44.0399 9.24699 42.8537 7.58879C41.6662 5.92877 40.1127 5.01127 38.4973 5.0001L38.5111 3.00015ZM45.8037 15.2084H38.5042V13.2084H45.8037V15.2084Z" fill="black" mask="url(#path-6-inside-1_60_242)"/>
<ellipse cx="32.024" cy="10.1846" rx="1.11727" ry="1.11771" fill="white"/>
</svg>
