<svg width="24" height="24" viewBox="0 0 24 24" fill="none" xmlns="http://www.w3.org/2000/svg">
<path d="M14 3.17859C14 4.28316 13.1046 5.17858 12 5.17858C10.8954 5.17858 10 4.28316 10 3.17859C10 2.07401 10.8954 1.17859 12 1.17859C13.1046 1.17859 14 2.07401 14 3.17859Z" stroke="#8B71D6" stroke-width="1.71429" stroke-linecap="round" stroke-linejoin="round"/>
<path d="M12 5.17847V9.03561" stroke="#8B71D6" stroke-width="1.71429" stroke-linecap="round" stroke-linejoin="round"/>
<path d="M15 18.4286C15 18.4286 14.0571 19.4285 12 19.4285C9.94286 19.4285 9 18.4286 9 18.4286" stroke="#8B71D6" stroke-width="1.71429" stroke-linecap="round" stroke-linejoin="round"/>
<path d="M8.64317 14.6425C8.40648 14.6425 8.2146 14.4507 8.2146 14.214C8.2146 13.9773 8.40648 13.7854 8.64317 13.7854" stroke="#8B71D6" stroke-width="1.71429" stroke-linecap="round" stroke-linejoin="round"/>
<path d="M8.64307 14.6425C8.87976 14.6425 9.07164 14.4507 9.07164 14.214C9.07164 13.9773 8.87976 13.7854 8.64307 13.7854" stroke="#8B71D6" stroke-width="1.71429" stroke-linecap="round" stroke-linejoin="round"/>
<path d="M15.357 14.6425C15.1203 14.6425 14.9285 14.4507 14.9285 14.214C14.9285 13.9773 15.1203 13.7854 15.357 13.7854" stroke="#8B71D6" stroke-width="1.71429" stroke-linecap="round" stroke-linejoin="round"/>
<path d="M15.3569 14.6425C15.5936 14.6425 15.7855 14.4507 15.7855 14.214C15.7855 13.9773 15.5936 13.7854 15.3569 13.7854" stroke="#8B71D6" stroke-width="1.71429" stroke-linecap="round" stroke-linejoin="round"/>
<path d="M2.57153 19.3929V12.5357C2.57153 10.6422 4.10656 9.10718 6.0001 9.10718H18.0001C19.8937 9.10718 21.4287 10.6422 21.4287 12.5357V19.3929C21.4287 21.2865 19.8937 22.8215 18.0001 22.8215H6.0001C4.10656 22.8215 2.57153 21.2865 2.57153 19.3929Z" stroke="#8B71D6" stroke-width="1.71429" stroke-linecap="round" stroke-linejoin="round"/>
</svg>
