<svg width="24" height="25" viewBox="0 0 24 25" fill="none" xmlns="http://www.w3.org/2000/svg">
<path d="M14.4865 8.71434C15.4333 8.71434 16.2008 7.94682 16.2008 7.00005C16.2008 6.05329 15.4333 5.28577 14.4865 5.28577C13.5397 5.28577 12.7722 6.05329 12.7722 7.00005C12.7722 7.94682 13.5397 8.71434 14.4865 8.71434Z" stroke="#3AC65A" stroke-width="1.71429" stroke-linecap="round" stroke-linejoin="round"/>
<path d="M7.62936 17.2857C8.10274 17.2857 8.4865 16.9019 8.4865 16.4286C8.4865 15.9552 8.10274 15.5714 7.62936 15.5714C7.15598 15.5714 6.77222 15.9552 6.77222 16.4286C6.77222 16.9019 7.15598 17.2857 7.62936 17.2857Z" stroke="#3AC65A" stroke-width="1.71429" stroke-linecap="round" stroke-linejoin="round"/>
<path d="M7.62932 11.2857C8.57609 11.2857 9.34361 10.5182 9.34361 9.57146C9.34361 8.6247 8.57609 7.85718 7.62932 7.85718C6.68256 7.85718 5.91504 8.6247 5.91504 9.57146C5.91504 10.5182 6.68256 11.2857 7.62932 11.2857Z" stroke="#3AC65A" stroke-width="1.71429" stroke-linecap="round" stroke-linejoin="round"/>
<path d="M16.235 21.1943C16.2159 20.8617 16.1003 20.542 15.9024 20.2741C15.7046 20.0063 15.4329 19.8018 15.1207 19.6857C14.3453 19.4308 13.6863 18.9078 13.2621 18.2106C12.8379 17.5132 12.6764 16.6875 12.8066 15.8818C12.9367 15.0761 13.35 14.3432 13.9722 13.815C14.5943 13.2867 15.3845 12.9978 16.2007 13H19.4064C19.9562 13.0015 20.4984 12.8708 20.9871 12.6189C21.4757 12.3669 21.8967 12.0011 22.2144 11.5524C22.5321 11.1036 22.7371 10.585 22.8123 10.0403C22.8876 9.49567 22.8307 8.94091 22.6464 8.42286C21.9646 6.49766 20.7667 4.79689 19.1837 3.50637C17.6007 2.21584 15.6935 1.38521 13.6705 1.10521C11.6474 0.825219 9.58625 1.10664 7.71226 1.91872C5.83827 2.73081 4.22354 4.04231 3.04445 5.70997C1.86536 7.37761 1.1673 9.33724 1.02651 11.3748C0.885723 13.4123 1.30764 15.4493 2.24616 17.2633C3.18466 19.0771 4.60368 20.5984 6.34817 21.6604C8.09264 22.7226 10.0955 23.2849 12.1379 23.2857C13.1465 23.2885 14.1505 23.1501 15.1207 22.8743C15.477 22.7745 15.7856 22.5498 15.9902 22.2414C16.1947 21.933 16.2816 21.5615 16.235 21.1943Z" stroke="#3AC65A" stroke-width="1.71429" stroke-linecap="round" stroke-linejoin="round"/>
</svg>
