<svg width="24" height="24" viewBox="0 0 24 24" fill="none" xmlns="http://www.w3.org/2000/svg">
<g clip-path="url(#clip0_29_356)">
<path d="M5.14282 12V7.49145C5.15621 6.60521 5.34434 5.73034 5.69643 4.91693C6.04851 4.10354 6.55766 3.36761 7.19465 2.75131C7.83165 2.13502 8.58399 1.65047 9.40858 1.32544C10.2332 1.00041 11.1138 0.841274 12 0.857162C12.8861 0.841274 13.7668 1.00041 14.5913 1.32544C15.4159 1.65047 16.1683 2.13502 16.8053 2.75131C17.4423 3.36761 17.9515 4.10354 18.3036 4.91693C18.6555 5.73034 18.8437 6.60521 18.8571 7.49145V12" stroke="#D18F4C" stroke-width="1.71429" stroke-linecap="round" stroke-linejoin="round"/>
<path d="M2.57146 9.42859H4.28575C4.51308 9.42859 4.7311 9.5189 4.89183 9.67965C5.05258 9.84038 5.14289 10.0584 5.14289 10.2857V15.4286C5.14289 15.6559 5.05258 15.8739 4.89183 16.0347C4.7311 16.1954 4.51308 16.2857 4.28575 16.2857H2.57146C2.1168 16.2857 1.68077 16.1051 1.35928 15.7836C1.03779 15.4621 0.857178 15.0261 0.857178 14.5714V11.1429C0.857178 10.6882 1.03779 10.2522 1.35928 9.93069C1.68077 9.60921 2.1168 9.42859 2.57146 9.42859Z" stroke="#D18F4C" stroke-width="1.71429" stroke-linecap="round" stroke-linejoin="round"/>
<path d="M21.4286 16.2857H19.7143C19.487 16.2857 19.2689 16.1954 19.1081 16.0347C18.9475 15.8739 18.8572 15.6559 18.8572 15.4286V10.2857C18.8572 10.0584 18.9475 9.84038 19.1081 9.67965C19.2689 9.5189 19.487 9.42859 19.7143 9.42859H21.4286C21.8832 9.42859 22.3193 9.60921 22.6408 9.93069C22.9622 10.2522 23.1429 10.6882 23.1429 11.1429V14.5714C23.1429 15.0261 22.9622 15.4621 22.6408 15.7836C22.3193 16.1051 21.8832 16.2857 21.4286 16.2857Z" stroke="#D18F4C" stroke-width="1.71429" stroke-linecap="round" stroke-linejoin="round"/>
<path d="M15.4287 20.9999C16.338 20.9999 17.21 20.6387 17.8531 19.9957C18.4961 19.3527 18.8573 18.4806 18.8573 17.5714V13.7142" stroke="#D18F4C" stroke-width="1.71429" stroke-linecap="round" stroke-linejoin="round"/>
<path d="M15.4287 21C15.4287 21.5683 15.2029 22.1135 14.801 22.5153C14.3992 22.9171 13.8541 23.1429 13.2858 23.1429H10.7144C10.1461 23.1429 9.60103 22.9171 9.19917 22.5153C8.79731 22.1135 8.57153 21.5683 8.57153 21C8.57153 20.4317 8.79731 19.8866 9.19917 19.4848C9.60103 19.0829 10.1461 18.8572 10.7144 18.8572H13.2858C13.8541 18.8572 14.3992 19.0829 14.801 19.4848C15.2029 19.8866 15.4287 20.4317 15.4287 21Z" stroke="#D18F4C" stroke-width="1.71429" stroke-linecap="round" stroke-linejoin="round"/>
</g>
<defs>
<clipPath id="clip0_29_356">
<rect width="24" height="24" fill="white"/>
</clipPath>
</defs>
</svg>
